<svg width="240" height="240" viewBox="0 0 240 240" fill="none" xmlns="http://www.w3.org/2000/svg">
  <ellipse cx="120" cy="144" rx="62" ry="70" fill="#B87A47"/>
  <ellipse cx="120" cy="160" rx="36" ry="28" fill="#F4E0BF"/>
  <circle cx="95" cy="128" r="16" fill="#24170F"/>
  <circle cx="145" cy="128" r="16" fill="#24170F"/>
  <circle cx="100" cy="122" r="5" fill="#FFFFFF"/>
  <circle cx="150" cy="122" r="5" fill="#FFFFFF"/>
  <ellipse cx="120" cy="146" rx="14" ry="11" fill="#3D2719"/>
  <path d="M102 172C108 180 114 184 120 184C126 184 132 180 138 172" stroke="#7E4F2C" stroke-width="7" stroke-linecap="round"/>
  <circle cx="76" cy="100" r="15" fill="#B87A47"/>
  <circle cx="164" cy="100" r="15" fill="#B87A47"/>
  <path d="M63 104C63 67.5492 92.5492 38 129 38H131C165.242 38 193 65.7583 193 100V120H63V104Z" fill="#FFC941"/>
  <path d="M71 110C71 78.5198 96.5198 53 128 53C159.48 53 185 78.5198 185 110" stroke="#E39B2F" stroke-width="8"/>
  <rect x="61" y="109" width="136" height="16" rx="8" fill="#4A3A2B"/>
  <circle cx="129" cy="109" r="19" fill="#FFE78A" stroke="#E39B2F" stroke-width="6"/>
</svg>
